<svg viewBox="0 0 42.1875 39.4688" xmlns="http://www.w3.org/2000/svg" xmlns:xlink="http://www.w3.org/1999/xlink" width="42.187500" height="39.468750" fill="none" customFrame="#000000">
	<path id="Vector" d="M41.1103 21.1875C41.7797 20.4403 42.1875 19.4541 42.1875 18.375C42.1875 16.0491 40.2947 14.1562 37.9688 14.1562L29.7806 14.1562C30.5916 11.6953 30.9375 8.43 30.9375 7.03031L30.9375 5.625C30.9375 2.52375 28.4137 0 25.3125 0L23.9062 0C23.2612 0 22.6988 0.43875 22.5422 1.065L21.7762 4.12969C20.7028 8.42156 17.295 13.1569 13.7681 14.0175C13.1503 12.4538 11.625 11.3438 9.84375 11.3438L1.40625 11.3438C0.63 11.3438 0 11.9738 0 12.75L0 38.0625C0 38.8387 0.63 39.4688 1.40625 39.4688L9.84375 39.4688C11.5209 39.4688 12.9722 38.4853 13.6519 37.0641L18.4837 38.6747C20.0634 39.2016 21.7097 39.4688 23.3756 39.4688L35.1562 39.4688C37.4822 39.4688 39.375 37.5759 39.375 35.25C39.375 34.7016 39.27 34.1766 39.0788 33.6956C40.8675 33.2072 42.1875 31.5675 42.1875 29.625C42.1875 28.5459 41.7797 27.5597 41.1103 26.8125C41.7797 26.0653 42.1875 25.0791 42.1875 24C42.1875 22.9209 41.7797 21.9347 41.1103 21.1875ZM11.25 35.25C11.25 36.0253 10.6191 36.6562 9.84375 36.6562L2.8125 36.6562L2.8125 14.1562L9.84375 14.1562C10.6191 14.1562 11.25 14.7872 11.25 15.5625L11.25 35.25ZM35.1562 22.5938L37.9688 22.5938C38.7441 22.5938 39.375 23.2247 39.375 24C39.375 24.7753 38.7441 25.4062 37.9688 25.4062L35.1562 25.4062C34.38 25.4062 33.75 26.0362 33.75 26.8125C33.75 27.5888 34.38 28.2188 35.1562 28.2188L37.9688 28.2188C38.7441 28.2188 39.375 28.8497 39.375 29.625C39.375 30.4003 38.7441 31.0312 37.9688 31.0312L35.1562 31.0312C34.38 31.0312 33.75 31.6612 33.75 32.4375C33.75 33.2137 34.38 33.8438 35.1562 33.8438C35.9316 33.8438 36.5625 34.4747 36.5625 35.25C36.5625 36.0253 35.9316 36.6562 35.1562 36.6562L23.3756 36.6562C22.0125 36.6562 20.6653 36.4378 19.3725 36.0066L14.0625 34.2366L14.0625 16.8356C16.2684 16.4166 18.4275 15.0197 20.3766 12.7331C22.2797 10.5 23.8228 7.53938 24.5044 4.81219L25.0041 2.8125L25.3125 2.8125C26.8631 2.8125 28.125 4.07438 28.125 5.625L28.125 7.03031C28.125 8.91844 27.5344 12.54 26.7788 14.1562L23.9062 14.1562C23.13 14.1562 22.5 14.7863 22.5 15.5625C22.5 16.3388 23.13 16.9688 23.9062 16.9688L37.9688 16.9688C38.7441 16.9688 39.375 17.5997 39.375 18.375C39.375 19.1503 38.7441 19.7812 37.9688 19.7812L35.1562 19.7812C34.38 19.7812 33.75 20.4112 33.75 21.1875C33.75 21.9638 34.38 22.5938 35.1562 22.5938Z" fill="rgb(153.708,156.453,164.688)" fill-rule="nonzero" />
</svg>
