<svg viewBox="0 0 40 40" xmlns="http://www.w3.org/2000/svg" xmlns:xlink="http://www.w3.org/1999/xlink" width="40.000000" height="40.000000" fill="none" customFrame="#000000">
	<rect id="Chat" width="40.000000" height="40.000000" x="0.000000" y="0.000000" />
	<path id="Subtract" d="M36.5397 17.6113C36.3023 19.2559 35.7397 20.8189 34.906 22.2563C34.9685 22.6121 35.0005 22.9719 35.0005 23.3331C35.0005 24.5878 34.637 25.7886 33.9636 26.8796C33.6274 27.4242 33.5409 28.0623 33.5076 28.4839C33.4695 28.9671 33.4823 29.4958 33.5168 30.0037C33.5555 30.5735 33.6256 31.1717 33.7058 31.736C33.0553 31.5463 32.3502 31.3558 31.6773 31.204C31.1176 31.0777 30.5449 30.9701 30.0262 30.9165C29.5737 30.8698 28.9198 30.8336 28.3351 31.0226C27.0566 31.4359 25.6498 31.6665 24.1672 31.6665C22.404 31.6665 20.7847 31.3535 19.3653 30.8098C19.0239 30.8253 18.68 30.8331 18.3338 30.8331C16.3261 30.8331 14.3938 30.5691 12.5859 30.0811C15.2142 33.1209 19.547 34.9998 24.1672 34.9998C25.9721 34.9998 27.7044 34.7227 29.3009 34.2135C29.3036 34.2136 29.3087 34.2135 29.3163 34.2133C29.3573 34.2125 29.4711 34.2103 29.6837 34.2322C30.018 34.2667 30.4479 34.3438 30.9438 34.4556C31.931 34.6783 33.0405 35.007 33.9051 35.2814C35.7387 35.8635 37.5153 34.2634 37.1876 32.4027C37.0465 31.6019 36.9 30.6245 36.8425 29.7778C36.8136 29.3521 36.8104 29.0026 36.8307 28.7462C36.839 28.6399 36.8498 28.5733 36.8566 28.5379C37.7943 26.9846 38.3339 25.216 38.3339 23.3331C38.3339 21.2105 37.6746 19.2723 36.5397 17.6113Z" fill="rgb(255,90,48)" fill-rule="evenodd" />
	<path id="Ellipse 8 (Stroke)" d="M9.32773 9.49661C7.08113 11.2146 5.83266 13.4698 5.83266 15.833C5.83266 17.0114 6.13943 18.1463 6.71496 19.2017C6.93417 19.6037 6.99636 20.0183 7.0186 20.299C7.04285 20.6051 7.03076 20.9197 7.00414 21.2139C6.95085 21.8028 6.82372 22.4701 6.67124 23.1274C6.49287 23.8962 6.26431 24.7162 6.03239 25.486C6.91281 25.166 7.87508 24.8381 8.78733 24.5719C9.52461 24.3568 10.2692 24.1702 10.9318 24.0654C11.5027 23.9751 12.3311 23.8864 13.0443 24.1332C14.6448 24.6869 16.4353 24.9997 18.3327 24.9997C21.9113 24.9997 25.0895 23.8886 27.3376 22.1694C29.5842 20.4514 30.8327 18.1962 30.8327 15.833C30.8327 13.4698 29.5842 11.2146 27.3376 9.49661C25.0895 7.77745 21.9113 6.66634 18.3327 6.66634C14.754 6.66634 11.5759 7.77745 9.32773 9.49661ZM7.30289 6.84875C10.1821 4.64702 14.0872 3.33301 18.3327 3.33301C22.5781 3.33301 26.4832 4.64702 29.3624 6.84875C32.2431 9.05167 34.166 12.2131 34.166 15.833C34.166 19.4529 32.2431 22.6143 29.3624 24.8173C26.4832 27.019 22.5781 28.333 18.3327 28.333C16.0942 28.333 13.9561 27.9681 12.0148 27.3041C12.0128 27.3095 11.8554 27.2941 11.4524 27.3578C10.988 27.4313 10.3952 27.5751 9.72089 27.7719C8.37845 28.1635 6.87087 28.7176 5.72255 29.1645C3.73317 29.9387 1.70658 28.0281 2.37685 25.9929C2.7321 24.9142 3.15108 23.5511 3.42414 22.3741C3.5617 21.7812 3.65096 21.2827 3.68437 20.9135C3.69596 20.7853 3.69896 20.6919 3.69829 20.6288C2.93115 19.1629 2.49932 17.5417 2.49932 15.833C2.49932 12.2131 4.42216 9.05167 7.30289 6.84875ZM3.6928 20.5379C3.69296 20.5377 3.69377 20.5422 3.69475 20.5518C3.69313 20.5429 3.69264 20.5381 3.6928 20.5379Z" fill="rgb(255,90,48)" fill-rule="evenodd" />
</svg>
