<svg viewBox="0 0 40 40" xmlns="http://www.w3.org/2000/svg" xmlns:xlink="http://www.w3.org/1999/xlink" width="40.000000" height="40.000000" fill="none" customFrame="#000000">
	<rect id="iPhone" width="40.000000" height="40.000000" x="0.000000" y="0.000000" />
	<path id="Rectangle (Stroke)" d="M14.1673 4.86947C12.7866 4.86947 11.6673 5.98875 11.6673 7.36947L11.6673 32.6299C11.6673 34.0106 12.7866 35.1299 14.1673 35.1299L25.834 35.1299C27.2147 35.1299 28.334 34.0106 28.334 32.6299L28.334 7.36947C28.334 5.98875 27.2147 4.86947 25.834 4.86947L25.695 4.86947L25.2891 5.84355C25.0303 6.46458 24.4234 6.86909 23.7507 6.86909L16.2507 6.86909C15.5779 6.86909 14.971 6.46458 14.7122 5.84355L14.3063 4.86947L14.1673 4.86947ZM8.33398 7.36947C8.33398 4.14781 10.9457 1.53613 14.1673 1.53613L25.834 1.53613C29.0556 1.53613 31.6673 4.14781 31.6673 7.36947L31.6673 32.6299C31.6673 35.8515 29.0556 38.4632 25.834 38.4632L14.1673 38.4632C10.9457 38.4632 8.33398 35.8515 8.33398 32.6299L8.33398 7.36947Z" fill="rgb(255,90,48)" fill-rule="evenodd" />
</svg>
