<svg viewBox="0 0 40 40" xmlns="http://www.w3.org/2000/svg" xmlns:xlink="http://www.w3.org/1999/xlink" width="40.000000" height="40.000000" fill="none" customFrame="#000000">
	<rect id="iPhone" width="40.000000" height="40.000000" x="0.000000" y="0.000000" />
	<path id="Rectangle (Stroke)" d="M14.1663 4.86947C12.7856 4.86947 11.6663 5.98875 11.6663 7.36947L11.6663 32.6299C11.6663 34.0106 12.7856 35.1299 14.1663 35.1299L25.833 35.1299C27.2137 35.1299 28.333 34.0106 28.333 32.6299L28.333 7.36947C28.333 5.98875 27.2137 4.86947 25.833 4.86947L25.694 4.86947L25.2881 5.84355C25.0293 6.46458 24.4225 6.86909 23.7497 6.86909L16.2497 6.86909C15.5769 6.86909 14.9701 6.46458 14.7113 5.84355L14.3053 4.86947L14.1663 4.86947ZM8.33301 7.36947C8.33301 4.14781 10.9447 1.53613 14.1663 1.53613L25.833 1.53613C29.0547 1.53613 31.6663 4.14781 31.6663 7.36947L31.6663 32.6299C31.6663 35.8515 29.0547 38.4632 25.833 38.4632L14.1663 38.4632C10.9447 38.4632 8.33301 35.8515 8.33301 32.6299L8.33301 7.36947Z" fill="rgb(255,90,48)" fill-rule="evenodd" />
</svg>
