<svg viewBox="0 0 130 22" xmlns="http://www.w3.org/2000/svg" xmlns:xlink="http://www.w3.org/1999/xlink" width="130.000000" height="22.000000" fill="none">
	<rect id="logo" width="130.000000" height="21.999998" x="0.000000" y="0.000000" />
	<path id="Vector" d="M0 11.0998C0 4.9998 3.3 1.2998 8.7 1.2998C12.8 1.2998 16.1 3.7998 16.7 7.4998C16.8 7.8998 16.5 8.1998 16.1 8.1998L13.5 8.1998C13.2 8.1998 13 7.9998 12.9 7.6998C12.4 5.7998 10.8 4.5998 8.7 4.5998C5.8 4.5998 4 7.0998 4 11.0998C4 15.0998 5.8 17.5998 8.8 17.5998C10.9 17.5998 12.4 16.4998 13 14.6998C13.1 14.3998 13.3 14.1998 13.6 14.1998L16.2 14.1998C16.6 14.1998 16.9 14.5998 16.8 14.8998C16.2 18.4998 13 20.8998 8.8 20.8998C3.3 20.8998 0 17.0998 0 11.0998ZM79.0001 19.7005L79.0001 5.50045C79.0001 5.20045 78.8001 5.00045 78.5001 5.00045L74.1001 5.00045C73.7001 5.00045 73.3001 4.70045 73.3001 4.20045L73.3001 2.50045C73.3001 2.10045 73.6001 1.70045 74.1001 1.70045L87.7001 1.70045C88.1001 1.70045 88.5001 2.00045 88.5001 2.50045L88.5001 4.20045C88.5001 4.60045 88.2001 5.00045 87.7001 5.00045L83.3001 5.00045C83.0001 5.00045 82.8001 5.20045 82.8001 5.50045L82.8001 19.8004C82.8001 20.2004 82.5001 20.5005 82.1001 20.5005L79.6001 20.5005C79.3001 20.4004 79.0001 20.1005 79.0001 19.7005ZM21.3997 20.4001L24.2997 20.4001C24.5997 20.4001 24.8997 20.2001 24.7997 20.0001L24.7997 14.1001C24.7997 13.8001 24.9997 13.6001 25.2997 13.6001L27.5997 13.6001C27.8997 13.6001 28.1997 13.7001 28.2997 14.0001L31.1997 20.0001C31.2997 20.2001 31.4997 20.3001 31.6997 20.3001L34.9997 20.3001C35.2997 20.3001 35.5997 19.9001 35.3997 19.6001L32.2997 13.7001C32.0997 13.4001 32.1997 12.9001 32.5997 12.7001C34.2997 11.7001 35.2997 9.80006 35.2997 7.70006C35.2997 4.10006 32.7997 1.80006 28.6997 1.80006L21.6997 1.80006C21.2997 1.80006 20.8997 2.20006 20.8997 2.60006L20.8997 19.9001C20.8997 20.2001 21.0997 20.4001 21.3997 20.4001ZM51.4998 20.4001L40.4998 20.4001C40.0998 20.4001 39.7998 20.1001 39.7998 19.7001L39.7998 2.50006C39.7998 2.10006 40.0998 1.80006 40.4998 1.80006L51.4998 1.80006C51.8998 1.80006 52.1998 2.10006 52.1998 2.50006L52.1998 4.40006C52.1998 4.80006 51.8998 5.10006 51.4998 5.10006L44.1998 5.10006C43.8998 5.10006 43.6998 5.30006 43.6998 5.60006L43.6998 9.00006C43.6998 9.30006 43.8998 9.50006 44.1998 9.50006L50.9998 9.50006C51.3998 9.50006 51.6998 9.80006 51.6998 10.2001L51.6998 11.9001C51.6998 12.3001 51.3998 12.6001 50.9998 12.6001L44.1998 12.6001C43.8998 12.6001 43.6998 12.8001 43.6998 13.1001L43.6998 16.9001C43.6998 17.2001 43.8998 17.4001 44.1998 17.4001L51.4998 17.4001C51.8998 17.4001 52.1998 17.7001 52.1998 18.1001L52.1998 20.0001C52.1998 20.1001 51.8998 20.4001 51.4998 20.4001ZM61.2999 15.9001L66.9999 15.9001C67.1999 15.9001 67.4999 16.1001 67.4999 16.3001L68.5999 20.0001C68.6999 20.2001 68.8999 20.4001 69.1999 20.4001L72.0999 20.4001C72.4999 20.4001 72.7999 20.0001 72.6999 19.6001L66.6999 2.20006C66.5999 2.00006 66.3999 1.80006 66.0999 1.80006L62.3999 1.80006C62.0999 1.80006 61.8999 2.00006 61.7999 2.20006L55.7999 19.6001C55.6999 20.0001 55.9999 20.4001 56.3999 20.4001L58.9999 20.4001C59.2999 20.4001 59.4999 20.3001 59.5999 20.0001L60.6999 16.3001C60.7999 16.1001 60.9999 15.9001 61.2999 15.9001ZM92.7999 20.4001L103.8 20.4001C104.2 20.4001 104.5 20.1001 104.5 20.0001L104.5 18.1001C104.5 17.7001 104.2 17.4001 103.8 17.4001L96.4999 17.4001C96.1999 17.4001 95.9999 17.2001 95.9999 16.9001L95.9999 13.1001C95.9999 12.8001 96.1999 12.6001 96.4999 12.6001L103.3 12.6001C103.7 12.6001 104 12.3001 104 11.9001L104 10.2001C104 9.80006 103.7 9.50006 103.3 9.50006L96.4999 9.50006C96.1999 9.50006 95.9999 9.30006 95.9999 9.00006L95.9999 5.60006C95.9999 5.30006 96.1999 5.10006 96.4999 5.10006L103.8 5.10006C104.2 5.10006 104.5 4.80006 104.5 4.40006L104.5 2.50006C104.5 2.10006 104.2 1.80006 103.8 1.80006L92.7999 1.80006C92.3999 1.80006 92.0999 2.10006 92.0999 2.50006L92.0999 19.7001C92.0999 20.1001 92.3999 20.4001 92.7999 20.4001ZM25.3997 10.7001C25.0997 10.7001 24.8997 10.5001 24.8997 10.2001L24.9997 10.2001L24.9997 5.40006C24.9997 5.10006 25.1997 4.90006 25.4997 4.90006L28.3997 4.90006C30.2997 4.90006 31.4997 6.00006 31.4997 7.80006C31.4997 9.60006 30.3997 10.7001 28.3997 10.7001L25.3997 10.7001ZM66.1999 13.0001L62.0999 13.0001C61.8999 13.0001 61.7999 12.8001 61.8999 12.6001L64.0999 5.60006L64.2999 5.60006L66.4999 12.6001C66.4999 12.8001 66.3999 13.0001 66.1999 13.0001Z" fill="rgb(30,33,44)" fill-rule="evenodd" />
	<path id="Vector" d="M117.7 9.7L111.5 1.6C111.1 1.2 110.6 1 110.1 1C109.6 1 109.1 1.2 108.7 1.6C108 2.4 108 3.6 108.7 4.4L113.6 11L108.7 17.6C108 18.4 108 19.6 108.7 20.4C109.1 20.8 109.6 21 110.1 21C110.6 21 111.1 20.8 111.5 20.4L117.7 12.3C118.4 11.7 118.4 10.5 117.7 9.7ZM126.543 1.6L120.343 9.7C119.643 10.5 119.643 11.7 120.343 12.3L126.543 20.4C126.943 20.8 127.443 21 127.943 21C128.443 21 128.943 20.8 129.343 20.4C130.043 19.6 130.043 18.4 129.343 17.6L124.443 11L129.343 4.4C130.043 3.6 130.043 2.4 129.343 1.6C128.943 1.2 128.443 1 127.943 1C127.443 1 126.943 1.2 126.543 1.6Z" fill="rgb(255,90,48)" fill-rule="evenodd" />
</svg>
