<svg viewBox="0 0 52 52" xmlns="http://www.w3.org/2000/svg" xmlns:xlink="http://www.w3.org/1999/xlink" width="52.000000" height="52.000000" fill="none">
	<rect id="ic-painting" width="52.000000" height="52.000000" x="0.000000" y="0.000000" />
	<path id="Vector" d="M42.8594 4.57031C42.8594 2.05029 40.8091 0 38.2891 0L7.82031 0C5.30029 0 3.25 2.05029 3.25 4.57031L3.25 13.7109C3.25 16.231 5.30029 18.2812 7.82031 18.2812L38.2891 18.2812C40.8091 18.2812 42.8594 16.231 42.8594 13.7109L42.8594 12.1875L44.3828 12.1875C45.2227 12.1875 45.9062 12.8711 45.9062 13.7109L45.9062 19.8047C45.9062 20.6446 45.2227 21.3281 44.3828 21.3281L26.1016 21.3281C23.5815 21.3281 21.5312 23.3784 21.5312 25.8984L21.5312 30.4688L20.0078 30.4688C19.1664 30.4688 18.4844 31.1507 18.4844 31.9922L18.4844 38.003L16.9609 44.1952C15.9703 48.1573 18.964 52 23.0547 52C27.1473 52 30.1379 48.1533 29.15 44.2007L27.625 38.003L27.625 31.9922C27.625 31.1507 26.943 30.4688 26.1016 30.4688L24.5781 30.4688L24.5781 25.8984C24.5781 25.0586 25.2617 24.375 26.1016 24.375L44.3828 24.375C46.9028 24.375 48.9531 22.3247 48.9531 19.8047L48.9531 13.7109C48.9531 11.1909 46.9028 9.14062 44.3828 9.14062L42.8594 9.14062L42.8594 4.57031ZM24.5781 33.5156L24.5781 36.6641L21.5312 36.6641L21.5312 33.5156L24.5781 33.5156ZM23.0547 48.9531C20.956 48.9531 19.4044 46.9834 19.9182 44.9287L21.202 39.7109L24.9074 39.7109L26.1924 44.9343C26.7026 46.9746 25.1609 48.9531 23.0547 48.9531ZM7.82031 3.04688L38.2891 3.04688C39.1289 3.04688 39.8125 3.73044 39.8125 4.57031L39.8125 6.09375L35.2422 6.09375C33.7616 6.09375 31.8684 6.64838 29.6761 7.29028C26.7149 8.15753 23.359 9.14062 20.0078 9.14062C16.7411 9.14062 14.4381 8.18649 12.4061 7.34503C10.8525 6.70154 9.38541 6.09375 7.82031 6.09375L6.29688 6.09375L6.29688 4.57031C6.29688 3.73044 6.98044 3.04688 7.82031 3.04688ZM39.8125 13.7109C39.8125 14.5508 39.1289 15.2344 38.2891 15.2344L7.82031 15.2344C6.98044 15.2344 6.29688 14.5508 6.29688 13.7109L6.29688 9.14062L7.82031 9.14062C8.77921 9.14062 9.86545 9.59052 11.2401 10.1598C13.4209 11.0632 16.1349 12.1875 20.0078 12.1875C23.7962 12.1875 27.531 11.0933 30.5326 10.2146C32.4179 9.66232 34.1988 9.14062 35.2422 9.14062L39.8125 9.14062L39.8125 13.7109Z" fill="rgb(255,90,48)" fill-rule="nonzero" />
</svg>
