<svg viewBox="0 0 52 52" xmlns="http://www.w3.org/2000/svg" xmlns:xlink="http://www.w3.org/1999/xlink" width="52.000000" height="52.000000" fill="none">
	<rect id="ic-plan" width="52.000000" height="52.000000" x="0.000000" y="0.000000" />
	<path id="Vector" d="M45.9062 3.14844C43.6552 3.14844 41.6854 4.37521 40.6303 6.19531L1.52344 6.19531C0.682094 6.19531 0 6.87741 0 7.71875L0 47.3281C0 48.1695 0.682094 48.8516 1.52344 48.8516L45.9062 48.8516C49.2663 48.8516 52 46.1179 52 42.7578L52 9.24219C52 5.88209 49.2663 3.14844 45.9062 3.14844ZM45.9062 45.8047C45.3103 45.8047 3.6011 45.8047 3.04688 45.8047L3.04688 9.24219L39.8125 9.24219L39.8125 42.7578C39.8125 43.5992 40.4946 44.2812 41.3359 44.2812C42.1773 44.2812 42.8594 43.5992 42.8594 42.7578C42.8594 41.0778 44.2262 39.7109 45.9062 39.7109C47.5863 39.7109 48.9531 41.0778 48.9531 42.7578C48.9531 44.4379 47.5863 45.8047 45.9062 45.8047ZM48.9531 37.4818C48.0563 36.9619 47.0153 36.6641 45.9062 36.6641C44.7972 36.6641 43.7562 36.9619 42.8594 37.4818L42.8594 9.24219C42.8594 7.56214 44.2262 6.19531 45.9062 6.19531C47.5863 6.19531 48.9531 7.56214 48.9531 9.24219L48.9531 37.4818Z" fill="rgb(255,90,48)" fill-rule="nonzero" />
	<path id="Vector" d="M35.1406 12.2891L7.71875 12.2891C6.87741 12.2891 6.19531 12.9712 6.19531 13.8125L6.19531 41.2344C6.19531 42.0757 6.87741 42.7578 7.71875 42.7578L22.9531 42.7578C23.3572 42.7578 23.7446 42.5972 24.0303 42.3115C24.3161 42.0258 24.4766 41.6384 24.4766 41.2344L24.4766 38.1875C24.4766 36.2013 25.7501 34.507 27.5234 33.8782L27.5234 41.2344C27.5234 42.0757 28.2055 42.7578 29.0469 42.7578L35.1406 42.7578C35.982 42.7578 36.6641 42.0757 36.6641 41.2344L36.6641 13.8125C36.6641 12.9712 35.982 12.2891 35.1406 12.2891ZM33.6172 39.7109L30.5703 39.7109L30.5703 32.0938C30.5703 31.2524 29.8882 30.5703 29.0469 30.5703C24.8468 30.5703 21.4297 33.9874 21.4297 38.1875L21.4297 39.7109L9.24219 39.7109L9.24219 30.5703L15.3359 30.5703L15.3359 35.1406C15.3359 35.982 16.018 36.6641 16.8594 36.6641C17.7007 36.6641 18.3828 35.982 18.3828 35.1406L18.3828 29.0469C18.3828 28.2055 17.7007 27.5234 16.8594 27.5234L9.24219 27.5234L9.24219 15.3359L18.3828 15.3359L18.3828 21.4297L13.8125 21.4297C12.9712 21.4297 12.2891 22.1118 12.2891 22.9531C12.2891 23.7945 12.9712 24.4766 13.8125 24.4766L19.9062 24.4766L26 24.4766C26.8413 24.4766 27.5234 23.7945 27.5234 22.9531C27.5234 22.1118 26.8413 21.4297 26 21.4297L21.4297 21.4297L21.4297 15.3359L33.6172 15.3359L33.6172 39.7109Z" fill="rgb(255,90,48)" fill-rule="nonzero" />
</svg>
