<svg viewBox="0 0 52 52" xmlns="http://www.w3.org/2000/svg" xmlns:xlink="http://www.w3.org/1999/xlink" width="52.000000" height="52.000000" fill="none" customFrame="#000000">
	<path id="Vector" d="M49.2504 30.9497C50.2897 29.5433 50.4811 27.582 49.5361 25.9454L43.4455 15.2945C42.3919 13.4696 40.1701 12.6369 38.1882 13.1667C38.6102 11.2698 37.7823 9.23477 36.0124 8.21295L25.4584 2.11961C23.9511 1.24922 22.1489 1.33839 20.7628 2.19568C19.9596 0.880141 18.5104 0 16.8594 0L4.57031 0C2.05024 0 0 2.05024 0 4.57031C0 5.62707 0 46.2132 0 47.4297C0 49.9498 2.05024 52 4.57031 52C5.75382 52 41.6374 52 47.4297 52C49.9498 52 52 49.9498 52 47.4297L52 35.1406C52 33.2675 50.8669 31.6547 49.2504 30.9497ZM18.3828 47.4297C18.3828 48.2697 17.6994 48.9531 16.8594 48.9531L4.57031 48.9531C3.73029 48.9531 3.04688 48.2697 3.04688 47.4297C3.04688 46.7337 3.04688 34.2857 3.04688 33.6172L18.3828 33.6172L18.3828 47.4297ZM18.3828 30.5703L3.04688 30.5703L3.04688 18.2812L18.3828 18.2812L18.3828 30.5703ZM18.3828 15.2344L3.04688 15.2344L3.04688 4.57031C3.04688 3.73029 3.73029 3.04688 4.57031 3.04688L16.8594 3.04688C17.6994 3.04688 18.3828 3.73029 18.3828 4.57031L18.3828 15.2344ZM21.4297 6.04988L21.8533 5.31609C22.2736 4.58839 23.2073 4.33814 23.9349 4.75831L34.489 10.8516C35.2167 11.2718 35.4668 12.2056 35.0456 12.9353L33.2853 15.9951C33.2412 16.0602 33.2016 16.1278 33.1683 16.1984L21.4297 36.6026L21.4297 6.04988ZM21.4297 42.7126L35.671 17.9581L38.6156 16.258C39.3621 15.8271 40.3859 16.0888 40.8037 16.8125L46.8944 27.4633C47.3156 28.1929 47.07 29.1283 46.3328 29.5539C45.2449 30.1837 22.5011 43.3507 21.4297 43.971L21.4297 42.7126ZM48.9531 47.4297C48.9531 48.2697 48.2697 48.9531 47.4297 48.9531L21.1677 48.9531C21.3301 48.4951 21.4212 48.0039 21.4282 47.4926L45.3954 33.6172L47.4297 33.6172C48.2697 33.6172 48.9531 34.3006 48.9531 35.1406L48.9531 47.4297Z" fill="rgb(255,255,255)" fill-rule="nonzero" />
</svg>
