<svg viewBox="0 0 21.7979 20" xmlns="http://www.w3.org/2000/svg" xmlns:xlink="http://www.w3.org/1999/xlink" width="21.797852" height="20.000000" fill="none" customFrame="#000000">
	<path id="Vector" d="M1 0C1.55228 0 2 0.447715 2 1L2 5.43632C3.65803 2.20928 7.01998 0 10.9 0C15.2556 0 18.9584 2.78413 20.3307 6.66675C20.5147 7.18747 20.2418 7.75879 19.7211 7.94284C19.2004 8.12689 18.6291 7.85396 18.445 7.33325C17.3463 4.22472 14.3817 2 10.9 2C7.93996 2 5.35365 3.60799 3.96994 6L6.99996 6C7.55225 6 7.99996 6.44772 7.99996 7C7.99996 7.55228 7.55225 8 6.99996 8L1 8C0.447715 8 0 7.55228 0 7L0 1C0 0.447715 0.447715 0 1 0ZM3.35312 12.6668C3.16907 12.146 2.59775 11.8731 2.07703 12.0572C1.55632 12.2412 1.28339 12.8125 1.46744 13.3332C2.83975 17.2159 6.54254 20 10.8982 20C14.7782 20 18.1401 17.7907 19.7981 14.5637L19.7981 19C19.7981 19.5523 20.2459 20 20.7981 20C21.3504 20 21.7981 19.5523 21.7981 19L21.7981 13C21.7981 12.4477 21.3504 12 20.7981 12L14.7982 12C14.2459 12 13.7982 12.4477 13.7982 13C13.7982 13.5523 14.2459 14 14.7982 14L17.8282 14C16.4445 16.392 13.8582 18 10.8982 18C7.41647 18 4.45183 15.7753 3.35312 12.6668Z" fill="rgb(65.6094,68.8538,80.75)" fill-rule="evenodd" />
</svg>
