<svg viewBox="0 0 48 48" xmlns="http://www.w3.org/2000/svg" xmlns:xlink="http://www.w3.org/1999/xlink" width="48.000000" height="48.000000" fill="none" customFrame="#000000">
	<defs>
		<clipPath id="clipPath_0">
			<rect width="24.000000" height="24.000000" x="12.000000" y="12.000000" fill="rgb(255,255,255)" />
		</clipPath>
	</defs>
	<g id="next-btn/hover">
		<circle id="shape" cx="24" cy="24" r="24" fill="rgb(255,255,255)" />
		<g id="Right" customFrame="url(#clipPath_0)">
			<rect id="Right" width="24.000000" height="24.000000" x="12.000000" y="12.000000" />
			<path id="Line (Stroke)" d="M26.7929 18.7929C27.1834 18.4024 27.8166 18.4024 28.2071 18.7929L32.7071 23.2929C33.0976 23.6834 33.0976 24.3166 32.7071 24.7071L28.2071 29.2071C27.8166 29.5976 27.1834 29.5976 26.7929 29.2071C26.4024 28.8166 26.4024 28.1834 26.7929 27.7929L29.5858 25L16 25C15.4477 25 15 24.5523 15 24C15 23.4477 15.4477 23 16 23L29.5858 23L26.7929 20.2071C26.4024 19.8166 26.4024 19.1834 26.7929 18.7929Z" fill="rgb(65.6094,68.8538,80.75)" fill-rule="evenodd" />
		</g>
	</g>
</svg>
