<svg viewBox="0 0 48 48" xmlns="http://www.w3.org/2000/svg" xmlns:xlink="http://www.w3.org/1999/xlink" width="48.000000" height="48.000000" fill="none" customFrame="#000000">
	<defs>
		<clipPath id="clipPath_1">
			<rect width="24.000000" height="24.000000" x="12.000000" y="12.000000" fill="rgb(255,255,255)" />
		</clipPath>
	</defs>
	<g id="prev-btn">
		<circle id="shape" cx="24" cy="24" r="24" opacity="0.5" fill="rgb(255,255,255)" />
		<g id="Left" customFrame="url(#clipPath_1)">
			<rect id="Left" width="24.000000" height="24.000000" x="12.000000" y="12.000000" />
			<path id="Line (Stroke)" d="M11.7929 0.292893C12.1834 -0.0976311 12.8166 -0.0976311 13.2071 0.292893L17.7071 4.79289C18.0976 5.18342 18.0976 5.81658 17.7071 6.20711L13.2071 10.7071C12.8166 11.0976 12.1834 11.0976 11.7929 10.7071C11.4024 10.3166 11.4024 9.68342 11.7929 9.29289L14.5858 6.5L1 6.5C0.447715 6.5 0 6.05228 0 5.5C0 4.94772 0.447715 4.5 1 4.5L14.5858 4.5L11.7929 1.70711C11.4024 1.31658 11.4024 0.683417 11.7929 0.292893Z" fill="rgb(65.6094,68.8538,80.75)" fill-rule="evenodd" transform="matrix(-1,-1.22465e-16,1.22465e-16,-1,33,29.5)" />
		</g>
	</g>
</svg>
