<svg viewBox="0 0 24 24" xmlns="http://www.w3.org/2000/svg" xmlns:xlink="http://www.w3.org/1999/xlink" width="24.000000" height="24.000000" fill="none" customFrame="#000000">
	<rect id="Right" width="24.000000" height="24.000000" x="0.000000" y="0.000000" />
	<path id="Line (Stroke)" d="M14.7929 6.79289C15.1834 6.40237 15.8166 6.40237 16.2071 6.79289L20.7071 11.2929C21.0976 11.6834 21.0976 12.3166 20.7071 12.7071L16.2071 17.2071C15.8166 17.5976 15.1834 17.5976 14.7929 17.2071C14.4024 16.8166 14.4024 16.1834 14.7929 15.7929L17.5858 13L4 13C3.44772 13 3 12.5523 3 12C3 11.4477 3.44772 11 4 11L17.5858 11L14.7929 8.20711C14.4024 7.81658 14.4024 7.18342 14.7929 6.79289Z" fill="rgb(65.6094,68.8538,80.75)" fill-rule="evenodd" />
</svg>
