<svg viewBox="0 0 52 52" xmlns="http://www.w3.org/2000/svg" xmlns:xlink="http://www.w3.org/1999/xlink" width="52.000000" height="52.000000" fill="none">
	<rect id="ic-construction" width="52.000000" height="52.000000" x="0.000000" y="0.000000" />
	<path id="Vector" d="M50.4766 27.5234C51.3179 27.5234 52 26.8413 52 26L52 14.625C52 13.7837 51.3179 13.1016 50.4766 13.1016C49.4146 13.1016 28.668 13.1016 27.5234 13.1016L27.5234 3.25C27.5234 2.40866 26.8413 1.72656 26 1.72656L9.75 1.72656C8.90866 1.72656 8.22656 2.40866 8.22656 3.25L8.22656 13.1016L1.52344 13.1016C0.682094 13.1016 0 13.7837 0 14.625L0 26C0 26.8413 0.682094 27.5234 1.52344 27.5234L8.22656 27.5234L8.22656 35.8516L1.52344 35.8516C0.682094 35.8516 0 36.5337 0 37.375L0 48.75C0 49.5913 0.682094 50.2734 1.52344 50.2734L50.4766 50.2734C51.3179 50.2734 52 49.5913 52 48.75L52 37.375C52 36.5337 51.3179 35.8516 50.4766 35.8516L43.7734 35.8516L43.7734 27.5234L50.4766 27.5234ZM48.9531 24.4766C47.3232 24.4766 37.2597 24.4766 35.6484 24.4766L35.6484 16.1484L48.9531 16.1484L48.9531 24.4766ZM32.6016 24.4766C31.0059 24.4766 21.0046 24.4766 19.3984 24.4766L19.3984 16.1484L32.6016 16.1484L32.6016 24.4766ZM11.2734 4.77344L24.4766 4.77344L24.4766 13.1016C22.8809 13.1016 12.8796 13.1016 11.2734 13.1016L11.2734 4.77344ZM3.04688 24.4766L3.04688 16.1484L16.3516 16.1484L16.3516 24.4766C14.7396 24.4766 4.67645 24.4766 3.04688 24.4766ZM11.2734 27.5234L24.4766 27.5234L24.4766 35.8516C22.8809 35.8516 12.8796 35.8516 11.2734 35.8516L11.2734 27.5234ZM3.04688 38.8984L16.3516 38.8984L16.3516 47.2266L3.04688 47.2266L3.04688 38.8984ZM19.3984 38.8984L32.6016 38.8984L32.6016 47.2266L19.3984 47.2266L19.3984 38.8984ZM48.9531 38.8984L48.9531 47.2266L35.6484 47.2266L35.6484 38.8984L48.9531 38.8984ZM40.7266 35.8516C39.1309 35.8516 29.1296 35.8516 27.5234 35.8516L27.5234 27.5234L40.7266 27.5234L40.7266 35.8516Z" fill="rgb(255,90,48)" fill-rule="nonzero" />
</svg>
