<svg viewBox="0 0 48 48" xmlns="http://www.w3.org/2000/svg" xmlns:xlink="http://www.w3.org/1999/xlink" width="48.000000" height="48.000000" fill="none">
	<rect id="ic-hand" width="48.000000" height="48.000000" x="0.000000" y="0.000000" />
	<path id="Vector" d="M7 44L1.5 44C0.672 44 0 43.328 0 42.5L0 25.5C0 24.672 0.672 24 1.5 24C8.512 24 11.776 26.434 11.91 26.538C12.394 26.908 12.608 27.534 12.448 28.122L8.448 42.894C8.272 43.546 7.678 44 7 44ZM3 41L5.852 41L9.248 28.458C8.202 27.964 6.158 27.228 3 27.044L3 41Z" fill="rgb(255,90,48)" fill-rule="nonzero" />
	<path id="Vector" d="M26.0002 48C21.4822 48 13.1542 44.542 6.96221 41.638C6.21221 41.286 5.89021 40.392 6.24221 39.642C6.59221 38.892 7.48821 38.566 8.23621 38.92C16.4762 42.786 22.9522 45 26.0002 45C30.0562 45 39.2642 40.618 44.0902 38.09C43.5342 37.772 42.7062 37.5 41.5002 37.5C39.7402 37.5 37.5702 38.22 35.4722 38.916C34.7902 39.142 34.1102 39.368 33.4362 39.574C31.9522 40.032 30.2002 40.5 28.4982 40.5C24.2842 40.5 18.7202 38.496 18.4862 38.41C17.7062 38.126 17.3042 37.266 17.5882 36.488C17.8722 35.708 18.7342 35.31 19.5102 35.59C19.5622 35.61 24.8142 37.5 28.4982 37.5C29.8102 37.5 31.3562 37.076 32.5562 36.706C33.2082 36.506 33.8662 36.288 34.5242 36.07C36.8482 35.298 39.2502 34.5 41.4962 34.5C46.4542 34.5 47.8322 37.802 47.8882 37.944C48.1702 38.646 47.8822 39.448 47.2202 39.814C46.6202 40.148 32.3142 48 26.0002 48Z" fill="rgb(255,90,48)" fill-rule="nonzero" />
	<path id="Vector" d="M32.9998 39.6795C32.1718 39.6795 31.4998 39.0075 31.4998 38.1795L31.4998 37.2795C31.4998 36.0975 30.6578 35.0655 29.4998 34.8295L10.2378 30.8895C9.42776 30.7235 8.90376 29.9315 9.06976 29.1195C9.23576 28.3075 10.0298 27.7895 10.8398 27.9515L30.1018 31.8915C32.6498 32.4115 34.4998 34.6795 34.4998 37.2815L34.4998 38.1815C34.4998 39.0075 33.8278 39.6795 32.9998 39.6795Z" fill="rgb(255,90,48)" fill-rule="nonzero" />
	<path id="Vector" d="M36 28.001C35.8 28.001 35.602 27.961 35.414 27.881C34.948 27.683 24 22.917 24 13.109L24 5.073C24 4.431 24.408 3.861 25.018 3.653L35.518 0.081C35.83 -0.027 36.17 -0.027 36.482 0.081L46.982 3.653C47.592 3.859 48 4.429 48 5.073L48 13.109C48 22.917 37.052 27.685 36.586 27.883C36.398 27.961 36.2 28.001 36 28.001ZM27 6.147L27 13.109C27 19.805 33.91 23.791 35.998 24.841C38.082 23.785 45 19.779 45 13.109L45 6.147L36 3.085L27 6.147Z" fill="rgb(255,90,48)" fill-rule="nonzero" />
	<path id="Vector" d="M35.4995 19.0003C35.1035 19.0003 34.7195 18.8423 34.4395 18.5603L30.4395 14.5603C29.8535 13.9743 29.8535 13.0243 30.4395 12.4383C31.0255 11.8523 31.9755 11.8523 32.5615 12.4383L35.3395 15.2163L40.2995 8.60028C40.7915 7.93827 41.7335 7.80228 42.3995 8.30027C43.0615 8.79827 43.1955 9.73827 42.6975 10.4003L36.6975 18.4003C36.4375 18.7483 36.0395 18.9663 35.6035 18.9963C35.5695 19.0003 35.5355 19.0003 35.4995 19.0003Z" fill="rgb(255,90,48)" fill-rule="nonzero" />
</svg>
