<svg viewBox="0 0 48 48" xmlns="http://www.w3.org/2000/svg" xmlns:xlink="http://www.w3.org/1999/xlink" width="48.000000" height="48.000000" fill="none">
	<rect id="ic-slippers" width="48.000000" height="48.000000" x="0.000000" y="0.000000" />
	<g id="Group">
		<g id="Group 272">
			<path id="Vector" d="M11.25 0C5.04675 0 0 5.04675 0 11.25L0 22.0312C0 22.8079 0.629625 23.4375 1.40625 23.4375L1.875 23.4375L1.875 34.6875C1.875 39.8569 6.08063 44.0625 11.25 44.0625C16.4194 44.0625 20.625 39.8569 20.625 34.6875L20.625 23.4375L21.0938 23.4375C21.8704 23.4375 22.5 22.8079 22.5 22.0312L22.5 11.25C22.5 5.04675 17.4533 0 11.25 0ZM11.25 2.8125C15.9024 2.8125 19.6875 6.59756 19.6875 11.25L19.6875 15L2.8125 15L2.8125 11.25C2.8125 6.59756 6.59756 2.8125 11.25 2.8125ZM2.8125 20.625L2.8125 17.8125L19.6875 17.8125L19.6875 20.625L2.8125 20.625ZM17.8125 34.6875C17.8125 38.3061 14.8686 41.25 11.25 41.25C7.63144 41.25 4.6875 38.3061 4.6875 34.6875L4.6875 23.4375L17.8125 23.4375L17.8125 34.6875Z" fill="rgb(255,90,48)" fill-rule="nonzero" transform="matrix(0.994522,0.104528,-0.104528,0.994522,26.8652,0.914062)" />
			<path id="Vector" d="M1.40625 2.8125L5.15625 2.8125C5.93288 2.8125 6.5625 2.18288 6.5625 1.40625C6.5625 0.629625 5.93288 0 5.15625 0L1.40625 0C0.629625 0 0 0.629625 0 1.40625C0 2.18288 0.629625 2.8125 1.40625 2.8125Z" fill="rgb(255,90,48)" fill-rule="nonzero" transform="matrix(0.994522,0.104528,-0.104528,0.994522,31.0664,37.1758)" />
		</g>
		<g id="Group 271">
			<path id="Vector" d="M11.25 0C5.04675 0 0 5.04675 0 11.25L0 22.0312C0 22.8079 0.629625 23.4375 1.40625 23.4375L1.875 23.4375L1.875 34.6875C1.875 39.8569 6.08063 44.0625 11.25 44.0625C16.4194 44.0625 20.625 39.8569 20.625 34.6875L20.625 23.4375L21.0938 23.4375C21.8704 23.4375 22.5 22.8079 22.5 22.0312L22.5 11.25C22.5 5.04675 17.4533 0 11.25 0ZM2.8125 20.625L2.8125 17.8125L19.6875 17.8125L19.6875 20.625L2.8125 20.625ZM17.8125 34.6875C17.8125 38.3061 14.8686 41.25 11.25 41.25C7.63144 41.25 4.6875 38.3061 4.6875 34.6875L4.6875 23.4375L17.8125 23.4375L17.8125 34.6875ZM19.6875 15L2.8125 15L2.8125 11.25C2.8125 6.59756 6.59756 2.8125 11.25 2.8125C15.9024 2.8125 19.6875 6.59756 19.6875 11.25L19.6875 15Z" fill="rgb(255,90,48)" fill-rule="nonzero" transform="matrix(0.994522,-0.104528,0.104528,0.994522,-1.24121,3.26562)" />
			<path id="Vector" d="M1.40625 2.8125L5.15625 2.8125C5.93288 2.8125 6.5625 2.18288 6.5625 1.40625C6.5625 0.629625 5.93288 0 5.15625 0L1.40625 0C0.629625 0 0 0.629625 0 1.40625C0 2.18288 0.629625 2.8125 1.40625 2.8125Z" fill="rgb(255,90,48)" fill-rule="nonzero" transform="matrix(0.994522,-0.104528,0.104528,0.994522,10.4082,37.8633)" />
		</g>
	</g>
</svg>
