<svg viewBox="0 0 20 20" xmlns="http://www.w3.org/2000/svg" xmlns:xlink="http://www.w3.org/1999/xlink" width="20.000000" height="20.000000" fill="none" customFrame="#000000">
	<rect id="Facebook" width="20.000000" height="20.000000" x="0.000000" y="0.000000" />
	<path id="Vector" d="M14.6354 0.837799L12.321 0.833984C9.72086 0.833984 8.04053 2.60489 8.04053 5.34584L8.04053 7.42611L5.71352 7.42611C5.51244 7.42611 5.34961 7.59357 5.34961 7.80013L5.34961 10.8142C5.34961 11.0208 5.51263 11.188 5.71352 11.188L8.04053 11.188L8.04053 18.7935C8.04053 19 8.20337 19.1673 8.40445 19.1673L11.4405 19.1673C11.6416 19.1673 11.8045 18.9999 11.8045 18.7935L11.8045 11.188L14.5253 11.188C14.7264 11.188 14.8892 11.0208 14.8892 10.8142L14.8903 7.80013C14.8903 7.70095 14.8519 7.60597 14.7837 7.53578C14.7156 7.46559 14.6227 7.42611 14.5262 7.42611L11.8045 7.42611L11.8045 5.66264C11.8045 4.81505 12.0011 4.38476 13.0759 4.38476L14.635 4.38419C14.8359 4.38419 14.9987 4.21673 14.9987 4.01037L14.9987 1.21163C14.9987 1.00545 14.8361 0.83818 14.6354 0.837799Z" fill="rgb(255,255,255)" fill-rule="nonzero" />
</svg>
