<svg viewBox="0 0 20 20" xmlns="http://www.w3.org/2000/svg" xmlns:xlink="http://www.w3.org/1999/xlink" width="20.000000" height="20.000000" fill="none">
	<rect id="Linked-In" width="20.000000" height="20.000000" x="0.000000" y="0.000000" />
	<path id="Vector" d="M1.66602 3.6674C1.66602 2.56254 2.56254 1.66602 3.6674 1.66602C4.77157 1.66602 5.6681 2.56254 5.66879 3.6674C5.66879 4.77227 4.77227 5.68754 3.6674 5.68754C2.56254 5.68754 1.66602 4.77227 1.66602 3.6674ZM18.3327 18.332L18.3285 18.3327L14.8806 18.3327L14.8806 12.9153C14.8806 11.6244 14.8542 9.9688 13.0841 9.9688C11.2875 9.9688 11.0125 11.3716 11.0125 12.8223L11.0125 18.332L7.56115 18.332L7.56115 7.2049L10.8757 7.2049L10.8757 8.72227L10.9243 8.72227C11.3848 7.84796 12.5125 6.92574 14.1931 6.92574C17.6889 6.92574 18.3327 9.22921 18.3327 12.2195L18.3327 18.332ZM1.94101 7.2056L5.39657 7.2056L5.39657 18.3327L1.94101 18.3327L1.94101 7.2056Z" fill="rgb(255,255,255)" fill-rule="evenodd" />
</svg>
