<svg viewBox="0 0 48 48" xmlns="http://www.w3.org/2000/svg" xmlns:xlink="http://www.w3.org/1999/xlink" width="48.000000" height="48.000000" fill="none">
	<rect id="ic-construction" width="48.000000" height="48.000000" x="0.000000" y="0.000000" />
	<path id="Vector" d="M46.5938 25.4062C47.3704 25.4062 48 24.7766 48 24L48 13.5C48 12.7234 47.3704 12.0938 46.5938 12.0938C45.6135 12.0938 26.4628 12.0938 25.4062 12.0938L25.4062 3C25.4062 2.22337 24.7766 1.59375 24 1.59375L9 1.59375C8.22338 1.59375 7.59375 2.22337 7.59375 3L7.59375 12.0938L1.40625 12.0938C0.629625 12.0938 0 12.7234 0 13.5L0 24C0 24.7766 0.629625 25.4062 1.40625 25.4062L7.59375 25.4062L7.59375 33.0938L1.40625 33.0938C0.629625 33.0938 0 33.7234 0 34.5L0 45C0 45.7766 0.629625 46.4062 1.40625 46.4062L46.5938 46.4062C47.3704 46.4062 48 45.7766 48 45L48 34.5C48 33.7234 47.3704 33.0938 46.5938 33.0938L40.4062 33.0938L40.4062 25.4062L46.5938 25.4062ZM45.1875 22.5938C43.683 22.5938 34.3936 22.5938 32.9062 22.5938L32.9062 14.9062L45.1875 14.9062L45.1875 22.5938ZM30.0938 22.5938C28.6208 22.5938 19.3889 22.5938 17.9062 22.5938L17.9062 14.9062L30.0938 14.9062L30.0938 22.5938ZM10.4062 4.40625L22.5938 4.40625L22.5938 12.0938C21.1208 12.0938 11.8889 12.0938 10.4062 12.0938L10.4062 4.40625ZM2.8125 22.5938L2.8125 14.9062L15.0938 14.9062L15.0938 22.5938C13.6058 22.5938 4.31672 22.5938 2.8125 22.5938ZM10.4062 25.4062L22.5938 25.4062L22.5938 33.0938C21.1208 33.0938 11.8889 33.0938 10.4062 33.0938L10.4062 25.4062ZM2.8125 35.9062L15.0938 35.9062L15.0938 43.5938L2.8125 43.5938L2.8125 35.9062ZM17.9062 35.9062L30.0938 35.9062L30.0938 43.5938L17.9062 43.5938L17.9062 35.9062ZM45.1875 35.9062L45.1875 43.5938L32.9062 43.5938L32.9062 35.9062L45.1875 35.9062ZM37.5938 33.0938C36.1208 33.0938 26.8889 33.0938 25.4062 33.0938L25.4062 25.4062L37.5938 25.4062L37.5938 33.0938Z" fill="rgb(255,90,48)" fill-rule="nonzero" />
</svg>
