<svg viewBox="0 0 48 48" xmlns="http://www.w3.org/2000/svg" xmlns:xlink="http://www.w3.org/1999/xlink" width="48.000000" height="48.000000" fill="none">
	<rect id="ic-painting" width="48.000000" height="48.000000" x="0.000000" y="0.000000" />
	<path id="Vector" d="M39.5625 4.21875C39.5625 1.89258 37.6699 0 35.3438 0L7.21875 0C4.89258 0 3 1.89258 3 4.21875L3 12.6562C3 14.9824 4.89258 16.875 7.21875 16.875L35.3438 16.875C37.6699 16.875 39.5625 14.9824 39.5625 12.6562L39.5625 11.25L40.9688 11.25C41.744 11.25 42.375 11.881 42.375 12.6562L42.375 18.2812C42.375 19.0565 41.744 19.6875 40.9688 19.6875L24.0938 19.6875C21.7676 19.6875 19.875 21.5801 19.875 23.9062L19.875 28.125L18.4688 28.125C17.692 28.125 17.0625 28.7545 17.0625 29.5312L17.0625 35.0797L15.6562 40.7955C14.7418 44.4529 17.5052 48 21.2812 48C25.0591 48 27.8196 44.4492 26.9077 40.8007L25.5 35.0797L25.5 29.5312C25.5 28.7545 24.8705 28.125 24.0938 28.125L22.6875 28.125L22.6875 23.9062C22.6875 23.131 23.3185 22.5 24.0938 22.5L40.9688 22.5C43.2949 22.5 45.1875 20.6074 45.1875 18.2812L45.1875 12.6562C45.1875 10.3301 43.2949 8.4375 40.9688 8.4375L39.5625 8.4375L39.5625 4.21875ZM22.6875 30.9375L22.6875 33.8438L19.875 33.8438L19.875 30.9375L22.6875 30.9375ZM21.2812 45.1875C19.344 45.1875 17.9117 43.3693 18.386 41.4727L19.571 36.6562L22.9915 36.6562L24.1776 41.4778C24.6486 43.3612 23.2255 45.1875 21.2812 45.1875ZM7.21875 2.8125L35.3438 2.8125C36.119 2.8125 36.75 3.44348 36.75 4.21875L36.75 5.625L32.5312 5.625C31.1646 5.625 29.417 6.13696 27.3933 6.72949C24.6599 7.53003 21.5621 8.4375 18.4688 8.4375C15.4534 8.4375 13.3275 7.55676 11.4518 6.78003C10.0177 6.18604 8.66345 5.625 7.21875 5.625L5.8125 5.625L5.8125 4.21875C5.8125 3.44348 6.44348 2.8125 7.21875 2.8125ZM36.75 12.6562C36.75 13.4315 36.119 14.0625 35.3438 14.0625L7.21875 14.0625C6.44348 14.0625 5.8125 13.4315 5.8125 12.6562L5.8125 8.4375L7.21875 8.4375C8.10388 8.4375 9.10657 8.85278 10.3755 9.3783C12.3885 10.2122 14.8938 11.25 18.4688 11.25C21.9657 11.25 25.4132 10.24 28.184 9.42883C29.9242 8.91907 31.5681 8.4375 32.5312 8.4375L36.75 8.4375L36.75 12.6562Z" fill="rgb(255,90,48)" fill-rule="nonzero" />
</svg>
