<svg viewBox="0 0 48 48" xmlns="http://www.w3.org/2000/svg" xmlns:xlink="http://www.w3.org/1999/xlink" width="48.000000" height="48.000000" fill="none">
	<rect id="ic-plan" width="48.000000" height="48.000000" x="0.000000" y="0.000000" />
	<path id="Vector" d="M42.375 2.90625C40.2971 2.90625 38.4788 4.03866 37.5049 5.71875L1.40625 5.71875C0.629625 5.71875 0 6.34837 0 7.125L0 43.6875C0 44.4641 0.629625 45.0938 1.40625 45.0938L42.375 45.0938C45.4766 45.0938 48 42.5704 48 39.4688L48 8.53125C48 5.42963 45.4766 2.90625 42.375 2.90625ZM42.375 42.2812C41.8249 42.2812 3.32409 42.2812 2.8125 42.2812L2.8125 8.53125L36.75 8.53125L36.75 39.4688C36.75 40.2454 37.3796 40.875 38.1562 40.875C38.9329 40.875 39.5625 40.2454 39.5625 39.4688C39.5625 37.9179 40.8242 36.6562 42.375 36.6562C43.9258 36.6562 45.1875 37.9179 45.1875 39.4688C45.1875 41.0196 43.9258 42.2812 42.375 42.2812ZM45.1875 34.5986C44.3597 34.1187 43.3988 33.8438 42.375 33.8438C41.3512 33.8438 40.3903 34.1187 39.5625 34.5986L39.5625 8.53125C39.5625 6.98044 40.8242 5.71875 42.375 5.71875C43.9258 5.71875 45.1875 6.98044 45.1875 8.53125L45.1875 34.5986Z" fill="rgb(255,90,48)" fill-rule="nonzero" />
	<path id="Vector" d="M32.4375 11.3438L7.125 11.3438C6.34837 11.3438 5.71875 11.9734 5.71875 12.75L5.71875 38.0625C5.71875 38.8391 6.34837 39.4688 7.125 39.4688L21.1875 39.4688C21.5605 39.4688 21.9181 39.3205 22.1818 39.0568C22.4456 38.7931 22.5938 38.4354 22.5938 38.0625L22.5938 35.25C22.5938 33.4166 23.7693 31.8526 25.4062 31.2722L25.4062 38.0625C25.4062 38.8391 26.0359 39.4688 26.8125 39.4688L32.4375 39.4688C33.2141 39.4688 33.8438 38.8391 33.8438 38.0625L33.8438 12.75C33.8438 11.9734 33.2141 11.3438 32.4375 11.3438ZM31.0312 36.6562L28.2188 36.6562L28.2188 29.625C28.2188 28.8484 27.5891 28.2188 26.8125 28.2188C22.9355 28.2188 19.7812 31.373 19.7812 35.25L19.7812 36.6562L8.53125 36.6562L8.53125 28.2188L14.1562 28.2188L14.1562 32.4375C14.1562 33.2141 14.7859 33.8438 15.5625 33.8438C16.3391 33.8438 16.9688 33.2141 16.9688 32.4375L16.9688 26.8125C16.9688 26.0359 16.3391 25.4062 15.5625 25.4062L8.53125 25.4062L8.53125 14.1562L16.9688 14.1562L16.9688 19.7812L12.75 19.7812C11.9734 19.7812 11.3438 20.4109 11.3438 21.1875C11.3438 21.9641 11.9734 22.5938 12.75 22.5938L18.375 22.5938L24 22.5938C24.7766 22.5938 25.4062 21.9641 25.4062 21.1875C25.4062 20.4109 24.7766 19.7812 24 19.7812L19.7812 19.7812L19.7812 14.1562L31.0312 14.1562L31.0312 36.6562Z" fill="rgb(255,90,48)" fill-rule="nonzero" />
</svg>
