<svg viewBox="0 0 24 24" xmlns="http://www.w3.org/2000/svg" xmlns:xlink="http://www.w3.org/1999/xlink" width="24.000000" height="24.000000" opacity="0.600000024" fill="none" customFrame="#000000">
	<rect id="Facebook" width="24.000000" height="24.000000" x="0.000000" y="0.000000" />
	<path id="Vector" d="M17.5628 1.00458L14.7856 1C11.6654 1 9.64903 3.12509 9.64903 6.41423L9.64903 8.91055L6.85662 8.91055C6.61532 8.91055 6.41992 9.1115 6.41992 9.35937L6.41992 12.9763C6.41992 13.2241 6.61554 13.4249 6.85662 13.4249L9.64903 13.4249L9.64903 22.5514C9.64903 22.7993 9.84443 23 10.0857 23L13.729 23C13.9703 23 14.1657 22.799 14.1657 22.5514L14.1657 13.4249L17.4307 13.4249C17.672 13.4249 17.8674 13.2241 17.8674 12.9763L17.8688 9.35937C17.8688 9.24036 17.8226 9.12638 17.7409 9.04215C17.6591 8.95793 17.5477 8.91055 17.4318 8.91055L14.1657 8.91055L14.1657 6.79439C14.1657 5.77728 14.4017 5.26094 15.6915 5.26094L17.5624 5.26025C17.8035 5.26025 17.9989 5.0593 17.9989 4.81166L17.9989 1.45317C17.9989 1.20576 17.8037 1.00504 17.5628 1.00458Z" fill="rgb(255,255,255)" fill-rule="nonzero" />
</svg>
