<svg viewBox="0 0 142 24" xmlns="http://www.w3.org/2000/svg" xmlns:xlink="http://www.w3.org/1999/xlink" width="142.000000" height="24.000000" fill="none">
	<rect id="logo" width="142.000000" height="24.000000" x="0.000000" y="0.000000" />
	<path id="Vector" d="M0 12.1089C0 5.45433 3.60461 1.41797 9.50308 1.41797C13.9815 1.41797 17.5862 4.14524 18.2415 8.18161C18.3508 8.61797 18.0231 8.94524 17.5862 8.94524L14.7462 8.94524C14.4185 8.94524 14.2 8.72706 14.0908 8.39979C13.5446 6.32706 11.7969 5.01797 9.50308 5.01797C6.33538 5.01797 4.36923 7.74524 4.36923 12.1089C4.36923 16.4725 6.33538 19.1998 9.61231 19.1998C11.9062 19.1998 13.5446 17.9998 14.2 16.0362C14.3092 15.7089 14.5277 15.4907 14.8554 15.4907L17.6954 15.4907C18.1323 15.4907 18.46 15.9271 18.3508 16.2543C17.6954 20.1816 14.2 22.7998 9.61231 22.7998C3.60462 22.7998 0 18.6543 0 12.1089ZM86.2925 21.4914L86.2925 6.00049C86.2925 5.67322 86.074 5.45504 85.7463 5.45504L80.9402 5.45504C80.5033 5.45504 80.0663 5.12777 80.0663 4.58231L80.0663 2.72777C80.0663 2.2914 80.394 1.85504 80.9402 1.85504L95.7955 1.85504C96.2324 1.85504 96.6694 2.18231 96.6694 2.72777L96.6694 4.58231C96.6694 5.01867 96.3417 5.45504 95.7955 5.45504L90.9894 5.45504C90.6617 5.45504 90.4432 5.67322 90.4432 6.00049L90.4432 21.6005C90.4432 22.0369 90.1155 22.3641 89.6786 22.3641L86.9479 22.3641C86.6202 22.255 86.2925 21.9278 86.2925 21.4914ZM23.3751 22.2546L26.5428 22.2546C26.8705 22.2546 27.1982 22.0364 27.0889 21.8182L27.0889 15.3819C27.0889 15.0546 27.3074 14.8364 27.6351 14.8364L30.1474 14.8364C30.4751 14.8364 30.8028 14.9455 30.912 15.2728L34.0797 21.8182C34.1889 22.0364 34.4074 22.1455 34.6259 22.1455L38.2305 22.1455C38.5582 22.1455 38.8859 21.7092 38.6674 21.3819L35.2812 14.9455C35.0628 14.6182 35.172 14.0728 35.6089 13.8546C37.4659 12.7637 38.5582 10.691 38.5582 8.40007C38.5582 4.47279 35.8274 1.9637 31.3489 1.9637L23.7028 1.9637C23.2659 1.9637 22.8289 2.40007 22.8289 2.83643L22.8289 21.7092C22.8289 22.0364 23.0474 22.2546 23.3751 22.2546ZM56.2537 22.2546L44.2383 22.2546C43.8014 22.2546 43.4737 21.9273 43.4737 21.491L43.4737 2.72734C43.4737 2.29098 43.8014 1.9637 44.2383 1.9637L56.2537 1.9637C56.6906 1.9637 57.0183 2.29098 57.0183 2.72734L57.0183 4.80007C57.0183 5.23643 56.6906 5.5637 56.2537 5.5637L48.2798 5.5637C47.9521 5.5637 47.7337 5.78188 47.7337 6.10916L47.7337 9.81825C47.7337 10.1455 47.9521 10.3637 48.2798 10.3637L55.7075 10.3637C56.1445 10.3637 56.4721 10.691 56.4721 11.1273L56.4721 12.9819C56.4721 13.4182 56.1445 13.7455 55.7075 13.7455L48.2798 13.7455C47.9521 13.7455 47.7337 13.9637 47.7337 14.291L47.7337 18.4364C47.7337 18.7637 47.9521 18.9819 48.2798 18.9819L56.2537 18.9819C56.6906 18.9819 57.0183 19.3092 57.0183 19.7455L57.0183 21.8182C57.0183 21.9273 56.6906 22.2546 56.2537 22.2546ZM66.9584 17.3455L73.1846 17.3455C73.403 17.3455 73.7307 17.5637 73.7307 17.7819L74.9323 21.8182C75.0415 22.0364 75.2599 22.2546 75.5876 22.2546L78.7553 22.2546C79.1923 22.2546 79.5199 21.8182 79.4107 21.3819L72.8569 2.40007C72.7476 2.18189 72.5292 1.9637 72.2015 1.9637L68.16 1.9637C67.8323 1.9637 67.6138 2.18189 67.5046 2.40007L60.9507 21.3819C60.8415 21.8182 61.1692 22.2546 61.6061 22.2546L64.4461 22.2546C64.7738 22.2546 64.9923 22.1455 65.1015 21.8182L66.303 17.7819C66.4123 17.5637 66.6307 17.3455 66.9584 17.3455ZM101.366 22.2546L113.381 22.2546C113.818 22.2546 114.146 21.9273 114.146 21.8182L114.146 19.7455C114.146 19.3092 113.818 18.9819 113.381 18.9819L105.408 18.9819C105.08 18.9819 104.861 18.7637 104.861 18.4364L104.861 14.291C104.861 13.9637 105.08 13.7455 105.408 13.7455L112.835 13.7455C113.272 13.7455 113.6 13.4182 113.6 12.9819L113.6 11.1273C113.6 10.691 113.272 10.3637 112.835 10.3637L105.408 10.3637C105.08 10.3637 104.861 10.1455 104.861 9.81825L104.861 6.10916C104.861 5.78188 105.08 5.5637 105.408 5.5637L113.381 5.5637C113.818 5.5637 114.146 5.23643 114.146 4.80007L114.146 2.72734C114.146 2.29098 113.818 1.9637 113.381 1.9637L101.366 1.9637C100.929 1.9637 100.601 2.29098 100.601 2.72734L100.601 21.491C100.601 21.9273 100.929 22.2546 101.366 22.2546ZM27.7443 11.6728C27.4166 11.6728 27.1982 11.4546 27.1982 11.1273L27.3074 11.1273L27.3074 5.89098C27.3074 5.5637 27.5259 5.34552 27.8535 5.34552L31.0212 5.34552C33.0966 5.34552 34.4074 6.54552 34.4074 8.50916C34.4074 10.4728 33.2059 11.6728 31.0212 11.6728L27.7443 11.6728ZM72.3107 14.1819L67.8323 14.1819C67.6138 14.1819 67.5046 13.9637 67.6138 13.7455L70.0169 6.10916L70.2353 6.10916L72.6384 13.7455C72.6384 13.9637 72.5292 14.1819 72.3107 14.1819Z" fill="rgb(255,255,255)" fill-rule="evenodd" />
	<path id="Vector" d="M128.564 10.5827L121.792 1.74634C121.355 1.30998 120.809 1.0918 120.263 1.0918C119.717 1.0918 119.171 1.30998 118.734 1.74634C117.969 2.61907 117.969 3.92816 118.734 4.80089L124.086 12.0009L118.734 19.2009C117.969 20.0736 117.969 21.3827 118.734 22.2554C119.171 22.6918 119.717 22.91 120.263 22.91C120.809 22.91 121.355 22.6918 121.792 22.2554L128.564 13.4191C129.329 12.7645 129.329 11.4554 128.564 10.5827ZM138.223 1.74634L131.451 10.5827C130.686 11.4554 130.686 12.7645 131.451 13.4191L138.223 22.2554C138.66 22.6918 139.207 22.91 139.753 22.91C140.299 22.91 140.845 22.6918 141.282 22.2554C142.047 21.3827 142.047 20.0736 141.282 19.2009L135.93 12.0009L141.282 4.80089C142.047 3.92816 142.047 2.61907 141.282 1.74634C140.845 1.30998 140.299 1.0918 139.753 1.0918C139.207 1.0918 138.66 1.30998 138.223 1.74634Z" fill="rgb(255,90,48)" fill-rule="evenodd" />
</svg>
