<svg viewBox="0 0 32 32" xmlns="http://www.w3.org/2000/svg" xmlns:xlink="http://www.w3.org/1999/xlink" width="32.000000" height="32.000000" fill="none" customFrame="#000000">
	<rect id="Facebook" width="32.000000" height="32.000000" x="0.000000" y="0.000000" />
	<path id="Vector" d="M23.4178 1.34009L19.7148 1.33398C15.5545 1.33398 12.866 4.16744 12.866 8.55296L12.866 11.8814L9.14281 11.8814C8.82108 11.8814 8.56055 12.1493 8.56055 12.4798L8.56055 17.3023C8.56055 17.6328 8.82138 17.9004 9.14281 17.9004L12.866 17.9004L12.866 30.0692C12.866 30.3997 13.1266 30.6673 13.4483 30.6673L18.306 30.6673C18.6278 30.6673 18.8883 30.3994 18.8883 30.0692L18.8883 17.9004L23.2416 17.9004C23.5633 17.9004 23.8239 17.6328 23.8239 17.3023L23.8257 12.4798C23.8257 12.3211 23.7642 12.1692 23.6551 12.0569C23.5461 11.9446 23.3976 11.8814 23.2431 11.8814L18.8883 11.8814L18.8883 9.05984C18.8883 7.70368 19.2029 7.01523 20.9227 7.01523L23.4172 7.01432C23.7386 7.01432 23.9991 6.74638 23.9991 6.41619L23.9991 1.93821C23.9991 1.60833 23.7389 1.3407 23.4178 1.34009Z" fill="rgb(120,122,128)" fill-rule="nonzero" />
</svg>
