<svg viewBox="0 0 32 32" xmlns="http://www.w3.org/2000/svg" xmlns:xlink="http://www.w3.org/1999/xlink" width="32.000000" height="32.000000" fill="none" customFrame="#000000">
	<rect id="Twitter" width="32.000000" height="32.000000" x="0.000000" y="0.000000" />
	<path id="Vector" d="M30 7.69579C28.9694 8.13304 27.8637 8.42958 26.7019 8.56197C27.8881 7.88176 28.7962 6.80286 29.2266 5.52121C28.1138 6.15112 26.8855 6.60852 25.5768 6.85648C24.5287 5.78594 23.038 5.11914 21.3845 5.11914C18.2124 5.11914 15.6404 7.58189 15.6404 10.6176C15.6404 11.0482 15.6911 11.4687 15.7891 11.8708C11.016 11.6412 6.78357 9.45157 3.95085 6.12431C3.45568 6.9352 3.17399 7.88005 3.17399 8.88864C3.17399 10.7969 4.18881 12.4806 5.72854 13.4657C4.78719 13.4355 3.90185 13.1876 3.12677 12.7754L3.12677 12.8441C3.12677 15.5079 5.10741 17.7311 7.73365 18.237C7.25248 18.361 6.74509 18.4297 6.22018 18.4297C5.84927 18.4297 5.49058 18.3945 5.13889 18.3275C5.87023 20.5138 7.99087 22.1037 10.5034 22.1473C8.53851 23.6216 6.06097 24.4978 3.36999 24.4978C2.90634 24.4978 2.44965 24.471 2 24.4224C4.54228 25.9855 7.56048 26.8969 10.8044 26.8969C21.3706 26.8969 27.1463 18.5168 27.1463 11.2492L27.1271 10.5372C28.2556 9.76651 29.2319 8.79818 30 7.69579Z" fill="rgb(120,122,128)" fill-rule="nonzero" />
</svg>
